<?xml version="1.0" encoding="UTF-8"?>
<svg xmlns="http://www.w3.org/2000/svg" xmlns:xlink="http://www.w3.org/1999/xlink" version="1.1" id="Layer_1" x="0px" y="0px" width="290.551px" height="49.606px" viewBox="0 0 290.551 49.606" xml:space="preserve">
<g>
	<path fill="#33414A" d="M116.183,25.46v12.161h-2.11V25.46c0-3.409-2.762-6.17-6.17-6.17c-3.407,0-6.17,2.762-6.17,6.17v12.161   h-2.108V25.46c0-3.409-2.764-6.17-6.172-6.17c-3.407,0-6.17,2.762-6.17,6.17v12.161h-2.108V25.46c0-4.573,3.706-8.281,8.279-8.281   c3.104,0,5.808,1.708,7.227,4.236c1.417-2.528,4.121-4.236,7.225-4.236C112.475,17.18,116.183,20.887,116.183,25.46z"></path>
	<rect x="120.137" y="21.626" fill="#33414A" width="2.108" height="15.996"></rect>
	<circle fill="#33414A" cx="121.191" cy="18.762" r="1.184"></circle>
	<rect x="190.934" y="21.626" fill="#33414A" width="2.108" height="15.996"></rect>
	<path fill="#33414A" d="M179.379,21.363c-2.444,0-4.641,1.062-6.153,2.748v-5.414h-2.109v18.925l2.109-2.48   c1.515,1.686,3.709,2.747,6.153,2.747c4.564,0,8.263-3.7,8.263-8.264C187.642,25.063,183.944,21.363,179.379,21.363z    M179.379,35.778c-3.397,0-6.153-2.754-6.153-6.153c0-3.397,2.756-6.153,6.153-6.153c3.398,0,6.154,2.756,6.154,6.153   C185.534,33.024,182.778,35.778,179.379,35.778z"></path>
	<circle fill="#33414A" cx="191.989" cy="18.762" r="1.184"></circle>
	<path fill="#33414A" d="M159.875,21.626c-4.563,0-8.263,3.7-8.263,8.261c0,4.564,3.699,8.265,8.263,8.265   c4.564,0,8.263-3.7,8.263-8.265C168.138,25.326,164.44,21.626,159.875,21.626z M159.875,36.043c-3.399,0-6.153-2.756-6.153-6.156   c0-3.397,2.754-6.153,6.153-6.153c3.398,0,6.154,2.755,6.154,6.153C166.03,33.288,163.274,36.043,159.875,36.043z"></path>
	<path fill="#33414A" d="M139.992,34.907c-1.516,1.822-3.8,2.981-6.355,2.981c-4.562,0-8.262-3.7-8.262-8.264   c0-4.562,3.7-8.262,8.262-8.262c2.503,0,4.746,1.113,6.26,2.87l-1.189,1.904c-1.11-1.61-2.967-2.666-5.071-2.666   c-3.398,0-6.152,2.756-6.152,6.153c0,3.399,2.754,6.153,6.152,6.153c1.961,0,3.709-0.916,4.836-2.347L139.992,34.907z"></path>
	<path fill="#33414A" d="M258.695,29.625v7.997h-2.108v-7.997c0-3.397-2.756-6.153-6.154-6.153c-3.399,0-6.153,2.756-6.153,6.153   v7.997h-2.109v-7.997c0-3.397-2.756-6.153-6.153-6.153c-3.398,0-6.154,2.756-6.154,6.153v7.997h-2.108v-7.997   c0-2.119,0.798-4.051,2.108-5.514c1.513-1.686,3.709-2.748,6.154-2.748c2.443,0,4.639,1.061,6.153,2.746   c0.403,0.451,0.758,0.944,1.056,1.476c0.297-0.53,0.651-1.023,1.054-1.474c1.513-1.686,3.71-2.748,6.153-2.748   c2.445,0,4.64,1.062,6.154,2.748C257.897,25.574,258.695,27.505,258.695,29.625z"></path>
	<path fill="#33414A" d="M215.812,21.118h-10.716c-4.852,0-8.783,3.932-8.783,8.785c0,4.852,3.932,8.785,8.783,8.785h10.716   c4.852,0,8.785-3.934,8.785-8.785C224.597,25.05,220.664,21.118,215.812,21.118z M215.812,36.551h-10.716   c-3.67,0-6.647-2.977-6.647-6.648s2.978-6.648,6.647-6.648h10.716c3.672,0,6.648,2.977,6.648,6.648S219.484,36.551,215.812,36.551z   "></path>
	<path fill="#33414A" d="M269.896,21.363c-4.563,0-8.263,3.7-8.263,8.262c0,4.563,3.699,8.264,8.263,8.264   c2.444,0,4.64-1.062,6.153-2.747l2.109,2.48v-7.997C278.159,25.063,274.459,21.363,269.896,21.363z M269.896,35.778   c-3.399,0-6.153-2.754-6.153-6.153c0-3.397,2.754-6.153,6.153-6.153c3.398,0,6.153,2.756,6.153,6.153   C276.049,33.024,273.294,35.778,269.896,35.778z"></path>
	<line fill="#33414A" x1="139.897" y1="24.233" x2="138.708" y2="26.137"></line>
	<line fill="#33414A" x1="139.992" y1="34.907" x2="138.473" y2="33.431"></line>
	<path fill="#33414A" d="M145,27.061c-0.001,0.019-0.001,0.039-0.001,0.058"></path>
	<path fill="#33414A" d="M148.384,21.626v2.108c-1.852,0-3.355,1.485-3.384,3.327v10.561h-2.11V27.119   c0-1.757,0.825-3.321,2.11-4.327C145.934,22.061,147.108,21.626,148.384,21.626z"></path>
	<path fill="#64E5CF" d="M44.123,43.17c-0.025,0.027-0.051,0.054-0.078,0.08c-4.551,4.551-11.931,4.551-16.482,0L6.957,22.642   c-4.551-4.551-4.551-11.931,0-16.482c2.276-2.275,5.259-3.414,8.242-3.414c2.981,0,5.964,1.138,8.24,3.414l0.277,0.277   c-4.472,4.557-4.446,11.876,0.079,16.401L44.123,43.17z"></path>
	<path fill="#518CDC" d="M60.882,43.447c-4.551,4.552-11.929,4.552-16.482,0l-0.277-0.276c4.474-4.558,4.448-11.877-0.078-16.402   L23.716,6.437c0.026-0.028,0.053-0.054,0.079-0.081c2.276-2.276,5.259-3.414,8.24-3.414c2.983,0,5.966,1.138,8.242,3.414   l20.604,20.609C65.435,31.516,65.435,38.896,60.882,43.447z"></path>
	<path fill="none" stroke="#ED1C24" stroke-width="0.0502" d="M44.123,43.17L23.795,22.838c-4.525-4.525-4.551-11.844-0.079-16.401   l20.329,20.332C48.57,31.293,48.597,38.613,44.123,43.17z"></path>
	<path fill="#1E5D92" d="M44.123,43.17L23.795,22.838c-4.525-4.525-4.551-11.844-0.079-16.401l20.329,20.332   C48.57,31.293,48.597,38.613,44.123,43.17z"></path>
	<g>
		<g>
			<path fill="#33414A" d="M284.147,23.34c-0.79,0-1.464-0.275-2.022-0.827c-0.559-0.55-0.838-1.216-0.838-1.997     c0-0.777,0.279-1.445,0.838-2.002s1.232-0.835,2.022-0.835c0.787,0,1.461,0.278,2.021,0.835c0.56,0.557,0.84,1.225,0.84,2.002     c0,0.78-0.28,1.446-0.84,1.997C285.608,23.065,284.934,23.34,284.147,23.34z M284.152,18.152c-0.648,0-1.203,0.233-1.664,0.698     c-0.461,0.466-0.691,1.023-0.691,1.671c0,0.648,0.23,1.202,0.691,1.66s1.016,0.687,1.664,0.687c0.651,0,1.206-0.229,1.662-0.687     s0.685-1.011,0.685-1.66c0-0.648-0.229-1.206-0.685-1.671C285.358,18.385,284.803,18.152,284.152,18.152z M285.611,22.264h-0.836     l-0.345-0.822c-0.176-0.409-0.366-0.613-0.57-0.613h-0.208v1.435h-0.68v-3.55h1.066c0.444,0,0.785,0.087,1.024,0.26     s0.359,0.409,0.359,0.708c0,0.243-0.073,0.449-0.22,0.621c-0.146,0.171-0.363,0.287-0.649,0.347v0.014     c0.198,0.041,0.395,0.26,0.59,0.656L285.611,22.264z M283.652,19.28v1.011h0.387c0.438,0,0.656-0.17,0.656-0.51     c0-0.173-0.059-0.3-0.177-0.38c-0.118-0.081-0.303-0.121-0.555-0.121H283.652z"></path>
		</g>
	</g>
</g>
</svg>
